{"title":"Split Second (1992) UNRATED DVDrip Xvid Dual Audio [Eng-Hindi] X","uid":10167270,"size":822493219,"categoryP":"video","categoryS":"movies","magnet":"?xt=urn:btih:63442e73d1f6b96bf16e729dfe1bae7b673cdabb&amp;dn=Split+Second+%281992%29+UNRATED+DVDrip+Xvid+Dual+Audio+%5BEng-Hindi%5D+X&amp;tr=udp%3A%2F%2Ftracker.openbittorrent.com%3A80&amp;tr=udp%3A%2F%2Fopen.demonii.com%3A1337&amp;tr=udp%3A%2F%2Ftracker.coppersurfer.tk%3A6969&amp;tr=udp%3A%2F%2Fexodus.desync.com%3A6969","seeders":2,"leechers":2,"uploader":"Xdesiars","files":3,"time":1400359498,"description":"Format                                   : Matroska\nFormat version                           : Version 2\nFile size                                : 778 MiB\nDuration                                 : 1h 27mn\nOverall bit rate                         : 1 250 Kbps\nMovie name                               : Split Seconds (1992) by XdesiArsenal [ExD-XMR]\nEncoded date                             : UTC 2014-05-17 18:02:33\nWriting application                      : mkvmerge v5.0.1 ('Es ist Sommer') built on Nov 23 2011 20:48:57\nWriting library                          : libebml v1.2.2 + libmatroska v1.3.0\n\nVideo\nID                                       : 1\nFormat                                   : MPEG-4 Visual\nFormat profile                           : Advanced Simple@L5\nFormat settings, BVOP                    : Yes\nFormat settings, QPel                    : No\nFormat settings, GMC                     : No warppoints\nFormat settings, Matrix                  : Custom\nCodec ID                                 : V_MS/VFW/FOURCC / XVID\nCodec ID/Hint                            : XviD\nDuration                                 : 1h 27mn\nBit rate                                 : 969 Kbps\nWidth                                    : 512 pixels\nHeight                                   : 384 pixels\nDisplay aspect ratio                     : 4:3\nFrame rate mode                          : Constant\nFrame rate                               : 25.000 fps\nColor space                              : YUV\nChroma subsampling                       : 4:2:0\nBit depth                                : 8 bits\nScan type                                : Progressive\nCompression mode                         : Lossy\nBits/(Pixel*Frame)                       : 0.197\nStream size                              : 603 MiB (78%)\nTitle                                    : Split Seconds (1992) by XdesiArsenal [ExD-XMR]\nWriting library                          : XviD 1.2.0SMP (UTC 2006-01-08)\nDefault                                  : No\nForced                                   : No\n\nAudio #1\nID                                       : 2\nFormat                                   : AC-3\nFormat/Info                              : Audio Coding 3\nMode extension                           : CM (complete main)\nFormat settings, Endianness              : Big\nMuxing mode                              : Header stripping\nCodec ID                                 : A_AC3\nDuration                                 : 1h 27mn\nBit rate mode                            : Constant\nBit rate                                 : 128 Kbps\nChannel(s)                               : 2 channels\nChannel positions                        : Front: L R\nSampling rate                            : 48.0 KHz\nBit depth                                : 16 bits\nCompression mode                         : Lossy\nDelay relative to video                  : 11s 0ms\nStream size                              : 79.7 MiB (10%)\nTitle                                    : XdesiArsenal\nLanguage                                 : Hindi\nDefault                                  : No\nForced                                   : No\n\nAudio #2\nID                                       : 3\nFormat                                   : AC-3\nFormat/Info                              : Audio Coding 3\nMode extension                           : CM (complete main)\nFormat settings, Endianness              : Big\nMuxing mode                              : Header stripping\nCodec ID                                 : A_AC3\nDuration                                 : 1h 27mn\nBit rate mode                            : Constant\nBit rate                                 : 128 Kbps\nChannel(s)                               : 2 channels\nChannel positions                        : Front: L R\nSampling rate                            : 48.0 KHz\nBit depth                                : 16 bits\nCompression mode                         : Lossy\nStream size                              : 79.7 MiB (10%)\nTitle                                    : XdesiArsenal\nLanguage                                 : English\nDefault                                  : No\nForced                                   : No\n","torrent":{"xt":"urn:btih:63442e73d1f6b96bf16e729dfe1bae7b673cdabb","amp;dn":"Split+Second+%281992%29+UNRATED+DVDrip+Xvid+Dual+Audio+%5BEng-Hindi%5D+X","amp;tr":["udp%3A%2F%2Ftracker.openbittorrent.com%3A80","udp%3A%2F%2Fopen.demonii.com%3A1337","udp%3A%2F%2Ftracker.coppersurfer.tk%3A6969","udp%3A%2F%2Fexodus.desync.com%3A6969"],"infoHash":"63442e73d1f6b96bf16e729dfe1bae7b673cdabb","infoHashBuffer":{"type":"Buffer","data":[99,68,46,115,209,246,185,107,241,110,114,157,254,27,174,123,103,60,218,187]},"announce":[],"urlList":[]}}